<?xml version="1.0" encoding="UTF-8" standalone="no"?>
<svg
   xmlns:dc="http://purl.org/dc/elements/1.1/"
   xmlns:cc="http://creativecommons.org/ns#"
   xmlns:rdf="http://www.w3.org/1999/02/22-rdf-syntax-ns#"
   xmlns:svg="http://www.w3.org/2000/svg"
   xmlns="http://www.w3.org/2000/svg"
   xmlns:sodipodi="http://sodipodi.sourceforge.net/DTD/sodipodi-0.dtd"
   xmlns:inkscape="http://www.inkscape.org/namespaces/inkscape"
   width="100px"
   height="100px"
   viewBox="0 0 100 100"
   version="1.1"
   id="svg12147"
   sodipodi:docname="buzzer-on.svg"
   inkscape:version="0.92.3 (2405546, 2018-03-11)">
  <metadata
     id="metadata12151">
    <rdf:RDF>
      <cc:Work
         rdf:about="">
        <dc:format>image/svg+xml</dc:format>
        <dc:type
           rdf:resource="http://purl.org/dc/dcmitype/StillImage" />
        <dc:title>27. Sound level 100%</dc:title>
      </cc:Work>
    </rdf:RDF>
  </metadata>
  <sodipodi:namedview
     pagecolor="#ffffff"
     bordercolor="#666666"
     borderopacity="1"
     objecttolerance="10"
     gridtolerance="10"
     guidetolerance="10"
     inkscape:pageopacity="0"
     inkscape:pageshadow="2"
     inkscape:window-width="1920"
     inkscape:window-height="1058"
     id="namedview12149"
     showgrid="false"
     inkscape:zoom="1.668772"
     inkscape:cx="-40.292776"
     inkscape:cy="198.38258"
     inkscape:window-x="-8"
     inkscape:window-y="-8"
     inkscape:window-maximized="1"
     inkscape:current-layer="svg12147" />
  <!-- Generator: Sketch 50 (54983) - http://www.bohemiancoding.com/sketch -->
  <title
     id="title12134">27. Sound level 100%</title>
  <desc
     id="desc12136">Created with Sketch.</desc>
  <defs
     id="defs12138" />
  <g
     id="27.-Sound-level-100%"
     stroke="none"
     stroke-width="1"
     fill="none"
     fill-rule="evenodd"
     stroke-linecap="round"
     stroke-linejoin="round">
    <g
       transform="translate(2.000000, 13.000000)"
       stroke="#222F3E"
       stroke-width="4"
       id="g12144">
      <path
         d="M14.6938776,22.5306122 L40.3148433,0.922459264 C42.3951836,-0.811009183 44.0816327,-0.0311544031 44.0816327,2.6727448 L44.0816327,71.5256583 C44.0816327,74.2257828 42.3960675,75.0101488 40.3148433,73.2759438 L14.6938776,51.9183673 L2.93820977,51.9183673 C1.31548132,51.9183673 0,50.5985451 0,48.9795731 L0,25.4694065 C0,23.8463553 1.31691501,22.5306122 2.93820977,22.5306122 L14.6938776,22.5306122 Z"
         id="Layer-1" />
      <path
         d="M69.5510204,73.6035649 C84.8232661,68.6015772 95.854109,54.2337581 95.854109,37.2895475 C95.854109,20.3499209 84.8292338,5.98529194 69.5634144,0.979591837"
         id="Layer-2" />
      <path
         d="M63.6734694,60.2090411 C73.7987081,57.5889793 81.2768183,48.3913297 81.2768183,37.4470738 C81.2768183,26.5149964 73.8153416,17.3256402 63.7072606,14.6938776"
         id="Layer-3" />
      <path
         d="M56.8163265,47.0204082 L56.8163265,47.0204082 C57.5110906,47.0204082 58.1889616,46.9480804 58.8428206,46.8105436 C63.2805701,45.87708 66.6122449,41.9398621 66.6122449,37.2244898 C66.6122449,32.4395808 63.1815825,28.455946 58.6457782,27.599106 C58.0531005,27.4871457 57.4415539,27.4285714 56.8163265,27.4285714"
         id="Layer-4" />
    </g>
  </g>
  <path
     style="fill:none;fill-opacity:1;fill-rule:nonzero;stroke:#3b341e;stroke-width:0;stroke-linecap:round;stroke-linejoin:miter;stroke-miterlimit:4;stroke-dasharray:none;stroke-opacity:1;paint-order:markers stroke fill"
     d="m 58.894798,37.015003 c -2.381773,-0.174828 -4.24101,2.592065 -3.189331,4.735717 0.549422,1.37705 1.977574,2.136743 3.413169,2.131292 2.664635,0.175823 5.151131,2.047786 5.791415,4.684512 0.860308,2.875176 -0.658611,6.162502 -3.406967,7.373867 -1.439421,0.940391 -3.338415,0.253082 -4.702711,1.332714 -2.041254,1.40093 -1.707344,4.949395 0.62031,5.866612 2.102423,0.714284 4.39009,0.02509 6.405092,-0.685933 5.111234,-2.039368 8.629728,-7.529994 8.147793,-13.042604 -0.175102,-4.89966 -3.437859,-9.41042 -7.914593,-11.326965 -1.609479,-0.744406 -3.400709,-1.044743 -5.164177,-1.069212 z"
     id="path12698"
     inkscape:connector-curvature="0" />
  <path
     style="fill:none;fill-opacity:1;fill-rule:nonzero;stroke:#3b341e;stroke-width:0;stroke-linecap:round;stroke-linejoin:miter;stroke-miterlimit:4;stroke-dasharray:none;stroke-opacity:1;paint-order:markers stroke fill"
     d="m 58.894798,37.015003 c -2.381773,-0.174828 -4.24101,2.592065 -3.189331,4.735717 0.549422,1.37705 1.977574,2.136743 3.413169,2.131292 2.664635,0.175823 5.151131,2.047786 5.791415,4.684512 0.860308,2.875176 -0.658611,6.162502 -3.406967,7.373867 -1.439421,0.940391 -3.338415,0.253082 -4.702711,1.332714 -2.041254,1.40093 -1.707344,4.949395 0.62031,5.866612 2.102423,0.714284 4.39009,0.02509 6.405092,-0.685933 5.111234,-2.039368 8.629728,-7.529994 8.147793,-13.042604 -0.175102,-4.89966 -3.437859,-9.41042 -7.914593,-11.326965 -1.609479,-0.744406 -3.400709,-1.044743 -5.164177,-1.069212 z"
     id="path12700"
     inkscape:connector-curvature="0" />
  <path
     style="fill:none;fill-opacity:1;fill-rule:nonzero;stroke:none;stroke-width:0;stroke-linecap:round;stroke-linejoin:miter;stroke-miterlimit:4;stroke-dasharray:none;stroke-opacity:1;paint-order:markers stroke fill"
     d="m 58.894798,37.015003 c -2.381773,-0.174828 -4.24101,2.592065 -3.189331,4.735717 0.549422,1.37705 1.977574,2.136743 3.413169,2.131292 2.664635,0.175823 5.151131,2.047786 5.791415,4.684512 0.860308,2.875176 -0.658611,6.162502 -3.406967,7.373867 -1.439421,0.940391 -3.338415,0.253082 -4.702711,1.332714 -2.041254,1.40093 -1.707344,4.949395 0.62031,5.866612 2.102423,0.714284 4.39009,0.02509 6.405092,-0.685933 5.111234,-2.039368 8.629728,-7.529994 8.147793,-13.042604 -0.175102,-4.89966 -3.437859,-9.41042 -7.914593,-11.326965 -1.609479,-0.744406 -3.400709,-1.044743 -5.164177,-1.069212 z"
     id="path12702"
     inkscape:connector-curvature="0" />
  <path
     style="fill:none;fill-opacity:1;fill-rule:nonzero;stroke:none;stroke-width:0;stroke-linecap:round;stroke-linejoin:miter;stroke-miterlimit:4;stroke-dasharray:none;stroke-opacity:1;paint-order:markers stroke fill"
     d="m 58.894798,37.015003 c -2.381773,-0.174828 -4.24101,2.592065 -3.189331,4.735717 0.549422,1.37705 1.977574,2.136743 3.413169,2.131292 2.664635,0.175823 5.151131,2.047786 5.791415,4.684512 0.860308,2.875176 -0.658611,6.162502 -3.406967,7.373867 -1.439421,0.940391 -3.338415,0.253082 -4.702711,1.332714 -2.041254,1.40093 -1.707344,4.949395 0.62031,5.866612 2.102423,0.714284 4.39009,0.02509 6.405092,-0.685933 5.111234,-2.039368 8.629728,-7.529994 8.147793,-13.042604 -0.175102,-4.89966 -3.437859,-9.41042 -7.914593,-11.326965 -1.609479,-0.744406 -3.400709,-1.044743 -5.164177,-1.069212 z"
     id="path12704"
     inkscape:connector-curvature="0" />
  <path
     style="fill:#4a8f9e;fill-opacity:1;fill-rule:nonzero;stroke:none;stroke-width:0;stroke-linecap:round;stroke-linejoin:miter;stroke-miterlimit:4;stroke-dasharray:none;stroke-opacity:1;paint-order:markers stroke fill"
     d="m 43.180824,13.968724 c -8.786389,7.290739 -17.416831,14.765083 -26.255506,21.989119 -4.140398,0.216097 -8.2963554,-0.0903 -12.4410224,0.241101 -1.2774894,0.19212 -2.139696,1.455248 -1.8623936,2.723805 0.04507,7.679207 -0.097687,15.362001 0.094802,23.038964 -0.089597,1.240594 0.8915836,2.381303 2.160552,2.346644 4.017668,0.198489 8.0989,-0.04448 12.056255,0.167075 8.772609,7.136684 17.389495,14.501521 26.142576,21.66063 1.116577,0.822082 2.627534,-0.389496 2.345276,-1.670549 0.06866,-23.058226 0.06686,-46.116601 -9.85e-4,-69.174826 -0.0765,-1.135648 -1.203492,-1.805361 -2.239554,-1.321963 z"
     id="path12726"
     inkscape:connector-curvature="0" />
  <path
     style="fill:#4a8f9e;fill-opacity:1;fill-rule:nonzero;stroke:none;stroke-width:0;stroke-linecap:round;stroke-linejoin:miter;stroke-miterlimit:4;stroke-dasharray:none;stroke-opacity:1;paint-order:markers stroke fill"
     d="m 44.285294,10.876079 c -1.472614,0.0075 -2.75028,0.859053 -3.783392,1.834104 -8.239321,6.844332 -16.400773,13.782033 -24.595473,20.6798 -3.94083,0.04557 -7.8883638,-0.09889 -11.8250959,0.09869 -1.8987889,0.256847 -3.4081517,1.757712 -4.05275074,3.51052 -0.22067973,1.102557 -0.03400515,2.288581 -0.09577789,3.423487 0.01285328,7.619645 -0.02567214,15.244991 0.01924159,22.86108 0.52441745,1.347233 1.39526844,2.602865 2.72878874,3.247691 1.4027683,0.701108 3.0461849,0.424032 4.5581866,0.517259 2.8860896,0.0085 5.7722036,0.0021 8.6583046,0.0041 8.65424,7.178013 17.235045,14.445703 25.969527,21.525755 1.482013,0.953441 3.66708,1.065431 4.967228,-0.26421 1.284169,-1.221461 1.439335,-3.108839 1.370432,-4.77644 0.105642,-21.627949 0.01,-43.256388 0.01342,-64.884524 -0.03207,-1.447241 0.05847,-2.912481 -0.04851,-4.348761 -0.361027,-1.484034 -1.356782,-2.91282 -2.897022,-3.316645 -0.321436,-0.08462 -0.655136,-0.118841 -0.987115,-0.111933 z m -0.378004,3.098103 c 0.922451,0.07485 1.579353,1.036161 1.365014,1.926435 0.01404,23.033703 0.02807,46.067405 0.0421,69.101108 C 45.084858,85.81433 44.08256,86.61398 43.276455,86.037253 37.512959,81.430868 31.900438,76.633728 26.210405,71.934822 23.107558,69.386088 20.053292,66.753263 16.902404,64.278536 12.664656,64.178023 8.3862442,64.280385 4.1696788,64.045977 3.2085248,63.637363 2.7404942,62.526429 2.8841035,61.524969 2.7893231,53.605636 2.8265038,45.676271 2.80725,37.753066 c 0.4183236,-0.916259 1.412218,-1.58912 2.4268838,-1.472705 3.9206087,-0.0776 7.8523182,0.0046 11.7655492,-0.228625 3.823771,-3.01651 7.508536,-6.216474 11.256792,-9.329615 5.04275,-4.206519 9.997906,-8.519446 15.108119,-12.643248 0.165447,-0.08786 0.357013,-0.118404 0.542696,-0.104691 z"
     id="path12742"
     inkscape:connector-curvature="0" />
  <path
     style="fill:#4a8f9e;fill-opacity:1;fill-rule:nonzero;stroke:none;stroke-width:0;stroke-linecap:round;stroke-linejoin:miter;stroke-miterlimit:4;stroke-dasharray:none;stroke-opacity:1;paint-order:markers stroke fill"
     d="m 58.921869,38.295561 c -1.414887,-0.0188 -2.660335,1.479507 -2.081843,2.849915 0.355351,1.113744 1.588325,1.513177 2.652119,1.449536 2.660392,0.244721 5.057766,1.942979 6.225047,4.336027 0.877344,1.694336 0.8381,3.705057 0.434802,5.517834 -0.925628,3.053498 -3.865721,5.262671 -7.020331,5.419229 -1.08478,0.09685 -2.38386,0.664381 -2.396387,1.929107 -0.202738,1.434696 1.270972,2.603369 2.641292,2.35396 4.352078,-0.249768 8.469023,-2.973937 10.247397,-6.978435 0.927018,-1.764401 1.13359,-3.770969 0.998066,-5.73295 -0.016,-2.503815 -1.09196,-4.95469 -2.718289,-6.827 -2.076029,-2.420595 -5.047157,-4.079973 -8.258568,-4.273919 -0.240309,-0.02405 -0.481483,-0.04758 -0.723305,-0.0433 z"
     id="path12744"
     inkscape:connector-curvature="0" />
  <path
     style="fill:#fff321;fill-opacity:1;fill-rule:nonzero;stroke:none;stroke-width:0;stroke-linecap:round;stroke-linejoin:miter;stroke-miterlimit:4;stroke-dasharray:none;stroke-opacity:1;paint-order:markers stroke fill"
     d="m 58.752511,38.12958 c -1.542479,0.05006 -2.817525,1.925258 -1.987263,3.33314 0.590871,1.236722 2.103572,1.268564 3.273967,1.436085 3.062998,0.496488 5.678265,3.085358 6.108688,6.177379 0.158586,1.843319 -0.01452,3.819735 -1.202496,5.327437 -1.330956,1.892075 -3.517742,3.087262 -5.814468,3.279239 -1.0962,0.123303 -2.467706,0.641928 -2.558521,1.92406 -0.281092,1.416095 0.984272,2.862627 2.430854,2.717823 3.955254,-0.0537 7.812835,-2.245679 9.966549,-5.54873 1.009633,-1.734527 1.948112,-3.654028 1.809683,-5.71815 0.01356,-1.723581 0.104637,-3.51623 -0.652109,-5.119185 C 68.33652,41.380377 63.701587,38.038533 58.752511,38.12958 Z"
     id="path12764"
     inkscape:connector-curvature="0" />
  <path
     style="fill:#fff321;fill-opacity:1;fill-rule:nonzero;stroke:none;stroke-width:0;stroke-linecap:round;stroke-linejoin:miter;stroke-miterlimit:4;stroke-dasharray:none;stroke-opacity:1;paint-order:markers stroke fill"
     d="m 65.475275,25.538337 c -1.62818,0.06643 -2.599765,2.323696 -1.450154,3.526798 0.89874,0.962959 2.335368,1.007082 3.466418,1.543513 6.636125,2.499026 11.73533,8.554004 13.113006,15.469985 0.974205,4.65933 0.360954,9.646609 -1.801675,13.909395 -2.729305,5.483952 -7.90154,9.649833 -13.844015,11.147916 -1.343854,0.454736 -1.965347,2.301861 -1.002425,3.402244 0.59667,0.893048 1.800995,0.982466 2.7381,0.648214 7.682069,-2.080341 14.147774,-8.002939 17.014118,-15.412101 1.21908,-3.057214 1.815044,-6.352901 1.704599,-9.644583 0.07961,-7.440117 -3.547199,-14.723973 -9.241302,-19.449117 -2.934192,-2.419939 -6.402069,-4.257083 -10.12025,-5.102746 -0.190573,-0.02904 -0.383502,-0.04647 -0.57642,-0.03952 z"
     id="path12768"
     inkscape:connector-curvature="0" />
  <path
     style="fill:#fff321;fill-opacity:1;fill-rule:nonzero;stroke:none;stroke-width:0;stroke-linecap:round;stroke-linejoin:miter;stroke-miterlimit:4;stroke-dasharray:none;stroke-opacity:1;paint-order:markers stroke fill"
     d="m 71.433754,11.790944 c -1.400193,0.08513 -2.44575,1.641333 -1.907193,2.960102 0.477872,1.336519 2.08585,1.47347 3.194466,2.005826 5.097922,1.993103 9.761388,5.131725 13.446821,9.197953 5.106397,5.471795 8.316808,12.641889 9.231583,20.070293 0.293696,2.609444 0.244515,5.340765 0.07307,7.94236 -0.877474,7.967408 -4.326611,15.629442 -9.96611,21.361891 -3.748254,3.90048 -8.378581,6.862194 -13.436713,8.750402 -1.028937,0.363743 -2.397414,0.748589 -2.619878,2.003579 -0.385862,1.367824 0.830869,2.857338 2.24837,2.7141 2.523525,-0.661262 4.908262,-1.794464 7.210464,-3.008042 C 88.75471,80.515504 96.150161,70.947434 98.831025,60.110338 101.38013,50.032562 99.861402,38.978183 94.578699,30.012525 90.179208,22.439774 83.27103,16.353652 75.175836,12.997356 73.9631,12.521666 72.74652,11.908247 71.433754,11.790944 Z"
     id="path12770"
     inkscape:connector-curvature="0" />
  <path
     style="fill:#4a8f9e;fill-opacity:1;fill-rule:nonzero;stroke:none;stroke-width:0;stroke-linecap:round;stroke-linejoin:miter;stroke-miterlimit:4;stroke-dasharray:none;stroke-opacity:1;paint-order:markers stroke fill"
     d="m 44.106483,10.741344 c -2.484687,0.170009 -4.034443,2.458594 -5.95821,3.756405 -7.462481,6.183709 -14.851498,12.455559 -22.261551,18.702049 -4.208302,0.09436 -8.4308708,0.09476 -12.6303458,0.247451 -1.8487698,0.981097 -3.82669406,2.763663 -3.47383145,5.05247 0.0707819,8.178346 -0.14866588,16.364551 0.13200146,24.538201 0.30989659,2.321221 2.64741119,4.241867 4.99412409,4.104047 3.6864474,0.126428 7.3762237,0.110778 11.0641217,0.169657 8.342763,6.891328 16.581159,13.913724 24.989655,20.722572 1.57089,1.405055 4.253226,2.088172 5.902824,0.439453 2.135678,-2.17519 1.29429,-5.493015 1.513201,-8.218008 0.110017,-22.064744 0.04161,-44.137725 -0.0285,-66.197709 -0.662955,-1.828083 -2.148167,-3.449104 -4.243493,-3.316588 z"
     id="path12778"
     inkscape:connector-curvature="0" />
  <path
     style="fill:#fcc24c;fill-opacity:1;fill-rule:nonzero;stroke:none;stroke-width:0;stroke-linecap:round;stroke-linejoin:miter;stroke-miterlimit:4;stroke-dasharray:none;stroke-opacity:1;paint-order:markers stroke fill"
     d="m 71.354393,11.622445 c -1.40723,0.07771 -2.442941,1.635635 -2.059678,2.97955 0.263378,1.335747 1.785029,1.691665 2.853668,2.165327 9.317716,3.452139 17.08003,10.941643 20.704434,20.220332 1.798725,4.516337 2.723242,9.368246 2.496386,14.223976 0.03519,3.869415 -0.818739,7.708339 -2.106688,11.347719 -3.263048,9.15165 -10.47999,16.759307 -19.416508,20.558097 -1.337288,0.708912 -2.97951,0.902434 -4.097218,1.982637 -0.657894,0.683977 -0.624128,1.826281 -0.247244,2.638374 0.509842,0.8483 1.502323,1.489375 2.512579,1.155117 3.012285,-0.753069 5.777761,-2.256984 8.466301,-3.771146 10.549279,-6.188781 17.896319,-17.439898 19.445646,-29.559972 0.385489,-3.197885 0.324349,-6.44077 0.091,-9.64834 C 98.939672,35.57268 93.649445,25.766178 85.652182,19.135515 81.840599,15.90899 77.388846,13.476848 72.679373,11.841551 72.250448,11.712699 71.805049,11.609363 71.354393,11.622445 Z"
     id="path13999"
     inkscape:connector-curvature="0" />
  <path
     style="fill:#fcc24c;fill-opacity:1;fill-rule:nonzero;stroke:none;stroke-width:0;stroke-linecap:round;stroke-linejoin:miter;stroke-miterlimit:4;stroke-dasharray:none;stroke-opacity:1;paint-order:markers stroke fill"
     d="m 65.437914,25.34232 c -1.628861,0.127015 -2.765638,2.339952 -1.68126,3.669558 0.844962,1.150854 2.41756,1.217431 3.619333,1.798256 6.325915,2.339453 11.232836,7.998237 12.835331,14.516131 1.516371,5.925644 0.23195,12.530155 -3.381761,17.4904 -2.758431,3.678401 -6.664195,6.581007 -11.121587,7.885477 -0.920087,0.217626 -1.877324,0.66579 -2.216146,1.621731 -0.694576,1.430834 0.493018,3.269427 2.079747,3.237553 1.823326,-0.182679 3.537364,-0.952421 5.201643,-1.678984 8.045172,-3.755903 13.961954,-11.885983 14.72437,-20.771195 0.249024,-3.555333 0.104548,-7.196157 -1.081926,-10.589139 -1.474937,-4.36435 -4.003759,-8.410484 -7.505676,-11.433209 -3.004986,-2.691941 -6.66789,-4.694164 -10.592955,-5.655336 -0.288891,-0.05907 -0.583384,-0.103533 -0.879113,-0.09124 z"
     id="path14001"
     inkscape:connector-curvature="0" />
  <path
     style="fill:#fcc24c;fill-opacity:1;fill-rule:nonzero;stroke:none;stroke-width:0;stroke-linecap:round;stroke-linejoin:miter;stroke-miterlimit:4;stroke-dasharray:none;stroke-opacity:1;paint-order:markers stroke fill"
     d="m 58.909428,37.947632 c -1.539599,-0.07453 -2.886659,1.569169 -2.5432,3.05424 0.262009,1.053538 1.226532,1.754819 2.276508,1.882366 1.510584,0.216011 3.061243,0.525599 4.306392,1.471465 1.887833,1.333298 3.184073,3.616757 2.975326,5.95556 0.0038,1.373679 -0.226392,2.792964 -1.11783,3.902854 -1.27161,1.85466 -3.435105,3.012832 -5.644183,3.267797 -1.163272,0.154807 -2.604853,0.675281 -2.782144,2.014438 -0.366376,1.608799 1.13688,3.217645 2.758582,3.024034 4.521688,-0.156326 8.933241,-2.948046 10.771567,-7.124147 0.660668,-1.234841 1.131658,-2.597605 1.020012,-4.017355 -0.02302,-1.988098 0.198659,-4.114293 -0.804837,-5.925997 -1.360192,-3.064337 -3.97804,-5.567346 -7.103689,-6.774355 -1.317466,-0.454996 -2.712997,-0.760432 -4.112504,-0.7309 z"
     id="path14003"
     inkscape:connector-curvature="0" />
</svg>
