<?xml version="1.0" encoding="UTF-8" standalone="no"?>
<svg
   xmlns:dc="http://purl.org/dc/elements/1.1/"
   xmlns:cc="http://creativecommons.org/ns#"
   xmlns:rdf="http://www.w3.org/1999/02/22-rdf-syntax-ns#"
   xmlns:svg="http://www.w3.org/2000/svg"
   xmlns="http://www.w3.org/2000/svg"
   xmlns:sodipodi="http://sodipodi.sourceforge.net/DTD/sodipodi-0.dtd"
   xmlns:inkscape="http://www.inkscape.org/namespaces/inkscape"
   width="100px"
   height="100px"
   viewBox="0 0 100 100"
   version="1.1"
   id="svg12147"
   sodipodi:docname="buzzer-off.svg"
   inkscape:version="0.92.3 (2405546, 2018-03-11)">
  <metadata
     id="metadata12151">
    <rdf:RDF>
      <cc:Work
         rdf:about="">
        <dc:format>image/svg+xml</dc:format>
        <dc:type
           rdf:resource="http://purl.org/dc/dcmitype/StillImage" />
        <dc:title>27. Sound level 100%</dc:title>
      </cc:Work>
    </rdf:RDF>
  </metadata>
  <sodipodi:namedview
     pagecolor="#ffffff"
     bordercolor="#666666"
     borderopacity="1"
     objecttolerance="10"
     gridtolerance="10"
     guidetolerance="10"
     inkscape:pageopacity="0"
     inkscape:pageshadow="2"
     inkscape:window-width="1366"
     inkscape:window-height="706"
     id="namedview12149"
     showgrid="false"
     inkscape:zoom="1.668772"
     inkscape:cx="-31.817753"
     inkscape:cy="-12.726116"
     inkscape:window-x="1912"
     inkscape:window-y="-8"
     inkscape:window-maximized="1"
     inkscape:current-layer="svg12147" />
  <!-- Generator: Sketch 50 (54983) - http://www.bohemiancoding.com/sketch -->
  <title
     id="title12134">27. Sound level 100%</title>
  <desc
     id="desc12136">Created with Sketch.</desc>
  <defs
     id="defs12138" />
  <path
     style="fill:none;fill-opacity:1;fill-rule:nonzero;stroke:none;stroke-width:0;stroke-linecap:round;stroke-linejoin:miter;stroke-miterlimit:4;stroke-dasharray:none;stroke-opacity:1;paint-order:markers stroke fill"
     d="m 58.894798,37.015003 c -2.381773,-0.174828 -4.24101,2.592065 -3.189331,4.735717 0.549422,1.37705 1.977574,2.136743 3.413169,2.131292 2.664635,0.175823 5.151131,2.047786 5.791415,4.684512 0.860308,2.875176 -0.658611,6.162502 -3.406967,7.373867 -1.439421,0.940391 -3.338415,0.253082 -4.702711,1.332714 -2.041254,1.40093 -1.707344,4.949395 0.62031,5.866612 2.102423,0.714284 4.39009,0.02509 6.405092,-0.685933 5.111234,-2.039368 8.629728,-7.529994 8.147793,-13.042604 -0.175102,-4.89966 -3.437859,-9.41042 -7.914593,-11.326965 -1.609479,-0.744406 -3.400709,-1.044743 -5.164177,-1.069212 z"
     id="path12702"
     inkscape:connector-curvature="0" />
  <path
     style="fill:none;fill-opacity:1;fill-rule:nonzero;stroke:none;stroke-width:0;stroke-linecap:round;stroke-linejoin:miter;stroke-miterlimit:4;stroke-dasharray:none;stroke-opacity:1;paint-order:markers stroke fill"
     d="m 58.894798,37.015003 c -2.381773,-0.174828 -4.24101,2.592065 -3.189331,4.735717 0.549422,1.37705 1.977574,2.136743 3.413169,2.131292 2.664635,0.175823 5.151131,2.047786 5.791415,4.684512 0.860308,2.875176 -0.658611,6.162502 -3.406967,7.373867 -1.439421,0.940391 -3.338415,0.253082 -4.702711,1.332714 -2.041254,1.40093 -1.707344,4.949395 0.62031,5.866612 2.102423,0.714284 4.39009,0.02509 6.405092,-0.685933 5.111234,-2.039368 8.629728,-7.529994 8.147793,-13.042604 -0.175102,-4.89966 -3.437859,-9.41042 -7.914593,-11.326965 -1.609479,-0.744406 -3.400709,-1.044743 -5.164177,-1.069212 z"
     id="path12704"
     inkscape:connector-curvature="0" />
  <path
     style="fill:#4a8f9e;fill-opacity:1;fill-rule:nonzero;stroke:none;stroke-width:0;stroke-linecap:round;stroke-linejoin:miter;stroke-miterlimit:4;stroke-dasharray:none;stroke-opacity:1;paint-order:markers stroke fill"
     d="m 43.180824,13.968724 c -8.786389,7.290739 -17.416831,14.765083 -26.255506,21.989119 -4.140398,0.216097 -8.2963554,-0.0903 -12.4410224,0.241101 -1.2774894,0.19212 -2.139696,1.455248 -1.8623936,2.723805 0.04507,7.679207 -0.097687,15.362001 0.094802,23.038964 -0.089597,1.240594 0.8915836,2.381303 2.160552,2.346644 4.017668,0.198489 8.0989,-0.04448 12.056255,0.167075 8.772609,7.136684 17.389495,14.501521 26.142576,21.66063 1.116577,0.822082 2.627534,-0.389496 2.345276,-1.670549 0.06866,-23.058226 0.06686,-46.116601 -9.85e-4,-69.174826 -0.0765,-1.135648 -1.203492,-1.805361 -2.239554,-1.321963 z"
     id="path12726"
     inkscape:connector-curvature="0" />
  <path
     style="fill:#4a8f9e;fill-opacity:1;fill-rule:nonzero;stroke:none;stroke-width:0;stroke-linecap:round;stroke-linejoin:miter;stroke-miterlimit:4;stroke-dasharray:none;stroke-opacity:1;paint-order:markers stroke fill"
     d="m 44.285294,10.876079 c -1.472614,0.0075 -2.75028,0.859053 -3.783392,1.834104 -8.239321,6.844332 -16.400773,13.782033 -24.595473,20.6798 -3.94083,0.04557 -7.8883638,-0.09889 -11.8250959,0.09869 -1.8987889,0.256847 -3.4081517,1.757712 -4.05275074,3.51052 -0.22067973,1.102557 -0.03400515,2.288581 -0.09577789,3.423487 0.01285328,7.619645 -0.02567214,15.244991 0.01924159,22.86108 0.52441745,1.347233 1.39526844,2.602865 2.72878874,3.247691 1.4027683,0.701108 3.0461849,0.424032 4.5581866,0.517259 2.8860896,0.0085 5.7722036,0.0021 8.6583046,0.0041 8.65424,7.178013 17.235045,14.445703 25.969527,21.525755 1.482013,0.953441 3.66708,1.065431 4.967228,-0.26421 1.284169,-1.221461 1.439335,-3.108839 1.370432,-4.77644 0.105642,-21.627949 0.01,-43.256388 0.01342,-64.884524 -0.03207,-1.447241 0.05847,-2.912481 -0.04851,-4.348761 -0.361027,-1.484034 -1.356782,-2.91282 -2.897022,-3.316645 -0.321436,-0.08462 -0.655136,-0.118841 -0.987115,-0.111933 z m -0.378004,3.098103 c 0.922451,0.07485 1.579353,1.036161 1.365014,1.926435 0.01404,23.033703 0.02807,46.067405 0.0421,69.101108 C 45.084858,85.81433 44.08256,86.61398 43.276455,86.037253 37.512959,81.430868 31.900438,76.633728 26.210405,71.934822 23.107558,69.386088 20.053292,66.753263 16.902404,64.278536 12.664656,64.178023 8.3862442,64.280385 4.1696788,64.045977 3.2085248,63.637363 2.7404942,62.526429 2.8841035,61.524969 2.7893231,53.605636 2.8265038,45.676271 2.80725,37.753066 c 0.4183236,-0.916259 1.412218,-1.58912 2.4268838,-1.472705 3.9206087,-0.0776 7.8523182,0.0046 11.7655492,-0.228625 3.823771,-3.01651 7.508536,-6.216474 11.256792,-9.329615 5.04275,-4.206519 9.997906,-8.519446 15.108119,-12.643248 0.165447,-0.08786 0.357013,-0.118404 0.542696,-0.104691 z"
     id="path12742"
     inkscape:connector-curvature="0" />
  <path
     style="fill:#4a8f9e;fill-opacity:1;fill-rule:nonzero;stroke:none;stroke-width:0;stroke-linecap:round;stroke-linejoin:miter;stroke-miterlimit:4;stroke-dasharray:none;stroke-opacity:1;paint-order:markers stroke fill"
     d="m 44.106483,10.741344 c -2.484687,0.170009 -4.034443,2.458594 -5.95821,3.756405 -7.462481,6.183709 -14.851498,12.455559 -22.261551,18.702049 -4.208302,0.09436 -8.4308708,0.09476 -12.6303458,0.247451 -1.8487698,0.981097 -3.82669406,2.763663 -3.47383145,5.05247 0.0707819,8.178346 -0.14866588,16.364551 0.13200146,24.538201 0.30989659,2.321221 2.64741119,4.241867 4.99412409,4.104047 3.6864474,0.126428 7.3762237,0.110778 11.0641217,0.169657 8.342763,6.891328 16.581159,13.913724 24.989655,20.722572 1.57089,1.405055 4.253226,2.088172 5.902824,0.439453 2.135678,-2.17519 1.29429,-5.493015 1.513201,-8.218008 0.110017,-22.064744 0.04161,-44.137725 -0.0285,-66.197709 -0.662955,-1.828083 -2.148167,-3.449104 -4.243493,-3.316588 z"
     id="path12778"
     inkscape:connector-curvature="0" />
</svg>
