<?xml version="1.0" encoding="UTF-8" standalone="no"?>
<!-- Generator: Adobe Illustrator 19.2.0, SVG Export Plug-In . SVG Version: 6.00 Build 0)  -->

<svg
   xmlns:dc="http://purl.org/dc/elements/1.1/"
   xmlns:cc="http://creativecommons.org/ns#"
   xmlns:rdf="http://www.w3.org/1999/02/22-rdf-syntax-ns#"
   xmlns:svg="http://www.w3.org/2000/svg"
   xmlns="http://www.w3.org/2000/svg"
   xmlns:sodipodi="http://sodipodi.sourceforge.net/DTD/sodipodi-0.dtd"
   xmlns:inkscape="http://www.inkscape.org/namespaces/inkscape"
   version="1.1"
   id="siren"
   x="0px"
   y="0px"
   viewBox="0 0 232 216.1328"
   enable-background="new 0 0 232 216.1328"
   xml:space="preserve"
   sodipodi:docname="lamp-off.svg"
   inkscape:version="0.92.3 (2405546, 2018-03-11)"><metadata
   id="metadata13396"><rdf:RDF><cc:Work
       rdf:about=""><dc:format>image/svg+xml</dc:format><dc:type
         rdf:resource="http://purl.org/dc/dcmitype/StillImage" /><dc:title></dc:title></cc:Work></rdf:RDF></metadata><defs
   id="defs13394" /><sodipodi:namedview
   pagecolor="#ffffff"
   bordercolor="#666666"
   borderopacity="1"
   objecttolerance="10"
   gridtolerance="10"
   guidetolerance="10"
   inkscape:pageopacity="0"
   inkscape:pageshadow="2"
   inkscape:window-width="1366"
   inkscape:window-height="706"
   id="namedview13392"
   showgrid="false"
   inkscape:zoom="2.4244354"
   inkscape:cx="51.271536"
   inkscape:cy="106.04319"
   inkscape:window-x="1912"
   inkscape:window-y="-8"
   inkscape:window-maximized="1"
   inkscape:current-layer="siren" />
<g
   id="g13389">
	<path
   d="M168,130.1328c0-27.5704-22.4432-50-50.0312-50h-3.9376c-27.588,0-50.0312,22.4296-50.0312,50v42h104   V130.1328z M92,132.1328c0,2.2108-1.7912,4-4,4s-4-1.7892-4-4c0-17.6444,14.3556-32,32-32c2.2088,0,4,1.7892,4,4s-1.7912,4-4,4   C102.7656,108.1328,92,118.8984,92,132.1328z M118,144.1328c-5.5236,0-10-4.4764-10-10c0-5.5236,4.4764-10,10-10s10,4.4764,10,10   C128,139.6564,123.5236,144.1328,118,144.1328z"
   id="path13371"
   fill="#FCC24C" />
	<circle
   cx="118"
   cy="134.1328"
   r="10"
   id="circle13373"
   fill="#FFDC82" />
	<path
   d="M120,104.1328c0-2.2108-1.7912-4-4-4c-17.6444,0-32,14.3556-32,32c0,2.2108,1.7912,4,4,4s4-1.7892,4-4   c0-13.2344,10.7656-24,24-24C118.2088,108.1328,120,106.3436,120,104.1328z"
   id="path13375"
   fill="#FFDC82" />
	<path
   d="M176,172.1328h-8H64h-8c-2.2088,0-4,1.7892-4,4v36c0,2.2108,1.7912,4,4,4h120c2.2088,0,4-1.7892,4-4v-36   C180,173.922,178.2088,172.1328,176,172.1328z"
   id="path13377"
   fill="#4A8F9E" />
	
	
	
	
	
</g>
<path
   style="fill:#b1aca1;fill-opacity:1;fill-rule:nonzero;stroke:none;stroke-width:0;stroke-linecap:round;stroke-linejoin:miter;stroke-miterlimit:4;stroke-dasharray:none;stroke-opacity:1;paint-order:markers stroke fill"
   d="m 115.05943,79.927511 c -8.96351,-0.215872 -17.960722,2.071113 -25.762233,6.480008 -10.937896,6.172666 -19.431932,16.549901 -23.171053,28.554251 -1.368547,4.39603 -2.309899,8.96496 -2.247263,13.58796 -0.156538,14.51298 -0.09653,29.0276 -0.159291,43.54124 0.519984,0.6572 1.703859,0.13228 2.487355,0.30049 33.939365,0 67.878735,0 101.818095,0 0.65621,-0.52101 0.12803,-1.70434 0.29429,-2.4882 -0.0744,-13.99972 0.0123,-28.00108 -0.18777,-41.99966 -0.23531,-9.64286 -3.71326,-19.07952 -9.25217,-26.92684 -3.42956,-4.740892 -7.66923,-8.915002 -12.47723,-12.252218 -8.59669,-5.972103 -19.12367,-9.06036 -29.57996,-8.797862 -0.58759,-0.0021 -1.17518,-0.0011 -1.76277,8.31e-4 z m 0.36913,20.445139 c 1.64601,-0.18037 3.37427,0.73203 3.99492,2.31988 1.01955,2.12886 -0.58344,4.95432 -2.97354,5.12025 -3.69194,0.18582 -7.4266,0.767 -10.77342,2.41701 -7.742154,3.5893 -13.248098,11.53314 -13.842662,20.05464 -0.121044,1.52522 0.0387,3.27515 -1.159228,4.44807 -1.374612,1.49262 -4.068056,1.54403 -5.368052,-0.0854 -0.912242,-0.83711 -1.11846,-2.22665 -0.973894,-3.44599 0.122895,-10.30014 5.839036,-20.32429 14.596104,-25.79447 4.911242,-3.13388 10.679642,-4.90828 16.499772,-5.03395 z m 2.56141,24.1202 c 3.48119,-0.30521 6.68784,1.94896 8.47632,4.80609 0.93214,1.58287 1.35471,3.39466 1.19336,5.24244 0.0372,3.40161 -2.12377,6.58448 -5.07521,8.19606 -3.57924,1.9501 -8.34672,1.33404 -11.27099,-1.52579 -3.14186,-2.88975 -4.00433,-7.87591 -1.89294,-11.63073 1.63521,-3.06598 5.00043,-5.3513 8.56946,-5.08807 z"
   id="path14572"
   inkscape:connector-curvature="0" /><path
   style="fill:#f6f4f0;fill-opacity:1;fill-rule:nonzero;stroke:none;stroke-width:0;stroke-linecap:round;stroke-linejoin:miter;stroke-miterlimit:4;stroke-dasharray:none;stroke-opacity:1;paint-order:markers stroke fill"
   d="m 115.21381,100.14992 c -10.85067,0.25715 -21.385824,6.41319 -26.811058,15.83569 -3.016174,5.15574 -4.645527,11.19903 -4.22521,17.1798 0.529987,1.79628 2.374724,3.22749 4.296834,2.86645 1.992502,-0.10346 3.508711,-1.98252 3.457996,-3.92896 0.203936,-3.53769 0.846421,-7.09003 2.485966,-10.26431 3.065168,-6.56083 9.313102,-11.55066 16.367862,-13.05906 2.13595,-0.5528 4.33646,-0.48798 6.48516,-0.90637 2.1651,-0.70991 3.39164,-3.47404 2.25096,-5.50846 -0.69375,-1.53412 -2.40811,-2.380742 -4.05388,-2.21621 l -0.14583,8.2e-4 z"
   id="path14574"
   inkscape:connector-curvature="0" /><path
   style="fill:#f6f4f0;fill-opacity:1;fill-rule:nonzero;stroke:none;stroke-width:0;stroke-linecap:round;stroke-linejoin:miter;stroke-miterlimit:4;stroke-dasharray:none;stroke-opacity:1;paint-order:markers stroke fill"
   d="m 117.71028,124.261 c -3.52232,-0.17057 -6.69182,2.15683 -8.41651,5.08864 -1.64022,2.74841 -1.6042,6.34445 -0.22269,9.18848 1.75389,3.60956 5.80302,6.01632 9.83454,5.50941 4.31659,-0.32235 8.16707,-3.8287 8.87427,-8.09513 0.27271,-2.14002 0.20523,-4.40881 -0.8969,-6.32733 -0.94911,-1.83082 -2.56697,-3.26728 -4.29997,-4.3464 -1.47478,-0.88272 -3.18298,-1.07876 -4.87274,-1.01767 z"
   id="path14576"
   inkscape:connector-curvature="0" /></svg>